<?xml version="1.0" standalone="no"?>
<svg viewBox="0 0 200 200" xmlns="http://www.w3.org/2000/svg">
  <path fill="#FF0066" d="M25.1,-45.4C30.4,-30.7,31.2,-20.5,36.8,-10.3C42.4,-0.1,52.7,10.2,55.2,22.7C57.7,35.2,52.3,49.9,41.8,57.4C31.3,65,15.6,65.4,0.9,64.1C-13.8,62.9,-27.6,59.9,-35.5,51.5C-43.3,43.1,-45.3,29.2,-51.8,15.3C-58.4,1.5,-69.6,-12.4,-69.4,-25.4C-69.1,-38.5,-57.4,-50.7,-44,-62.8C-30.5,-74.9,-15.2,-86.8,-2.7,-83.1C9.9,-79.4,19.8,-60.1,25.1,-45.4Z" transform="translate(100 100)" />
</svg>
