<svg height="512" viewBox="0 0 512 512" width="512" xmlns="http://www.w3.org/2000/svg"><g id="flat"><path d="m32 280h80a16 16 0 0 1 16 16 16 16 0 0 1 -16 16h-80" fill="#cbcbcb"/><path d="m416 152h27a20 20 0 0 1 18.276 11.877l26.724 60.123v8h-48v80h-184v-104l58.345-51.052a20 20 0 0 1 13.17-4.948h24.485" fill="#ff6268"/><path d="m256 312h72l5.333-72-16.583-24.875a16 16 0 0 0 -13.313-7.125h-94.874a16 16 0 0 0 -13.313 7.125l-16.583 24.875-2.667 72z" fill="#fbb540"/><path d="m48 360h48v96h-48z" fill="#533222"/><path d="m416 360h48v96h-48z" fill="#533222"/><path d="m96 360h320v96h-320z" fill="#683b0d"/><rect fill="#fdc9a6" height="80" rx="32" width="64" x="224" y="152"/><path d="m288 184v.56l-3.09.11h-18.91a42.988 42.988 0 0 1 -34-16.67l-2-2.67a32 32 0 0 1 58 18.67z" fill="#fdc9a6"/><path d="m288 184v.56l-3.09.11h-18.91a42.988 42.988 0 0 1 -34-16.67l-2-2.67a32 32 0 0 1 58 18.67z" fill="#533222"/><rect fill="#fdc9a6" height="96" rx="32" width="64" x="352" y="88"/><path d="m32 248h80a16 16 0 0 1 16 16 16 16 0 0 1 -16 16h-80a0 0 0 0 1 0 0v-32a0 0 0 0 1 0 0z" fill="#eaeae8" transform="matrix(-1 0 0 -1 160 528)"/><path d="m72 208a8 8 0 0 1 -7.588-5.472l-8-24a8 8 0 1 1 15.178-5.06l8 24a8 8 0 0 1 -7.59 10.532z" fill="#027e2a"/><path d="m88.006 208a8.008 8.008 0 0 1 -7.767-9.942l8-32a8 8 0 1 1 15.522 3.88l-8 32a8 8 0 0 1 -7.755 6.062z" fill="#02a437"/><path d="m296 256 16 24h-26a14 14 0 0 0 -14 14v18h63.437a24.563 24.563 0 0 0 24.563-24.563 24.563 24.563 0 0 0 -4.125-13.625l-22.542-33.812z" fill="#fdc9a6"/><path d="m488 232v48a32 32 0 0 1 -32 32h-64v-16.752a18 18 0 0 1 15.041-17.755l32.959-5.493v-40z" fill="#fdc9a6"/><g fill="#533222"><circle cx="384" cy="80" r="16"/><path d="m416 120v8h-3.09a25.881 25.881 0 0 1 -23.15-14.31l-.85-1.69-.95 1.98a25.884 25.884 0 0 1 -23.34 14.69h-12.62v-8.67a32 32 0 1 1 64 0z"/><path d="m96 360h320v24h-320z"/></g><path d="m96 248h-32l-8-48h48z" fill="#0bafea"/><path d="m239.99 320a8 8 0 0 1 -7.881-6.686l-8-48a8 8 0 1 1 15.782-2.63l8 48a8 8 0 0 1 -6.576 9.207 8.185 8.185 0 0 1 -1.325.109z" fill="#d32b39"/><path d="m24 312h464v48h-464z" fill="#683b0d"/><path d="m216 256-16 24h26a14 14 0 0 1 14 14v18h-63.437a24.563 24.563 0 0 1 -24.563-24.563 24.563 24.563 0 0 1 4.125-13.625l22.542-33.812z" fill="#fdc9a6"/><path d="m240 304h32v8h-32z" fill="#cbcbcb"/></g></svg>