<?xml version="1.0" encoding="iso-8859-1"?>
<!-- Generator: Adobe Illustrator 19.0.0, SVG Export Plug-In . SVG Version: 6.00 Build 0)  -->
<svg version="1.1" id="Capa_1" xmlns="http://www.w3.org/2000/svg" xmlns:xlink="http://www.w3.org/1999/xlink" x="0px" y="0px"
	 viewBox="0 0 512 512" style="enable-background:new 0 0 512 512;" xml:space="preserve">
<path style="fill:#0054A0;" d="M232.759,156.09c0,26.362-14.419,49.361-35.8,61.531c-10.316,5.888-22.249,9.251-34.982,9.251
	c-39.084,0-70.781-31.697-70.781-70.782c0-2.426,0.118-4.823,0.355-7.18c3.6-35.721,33.768-63.602,70.426-63.602
	c3.018,0,5.986,0.187,8.906,0.562c2.535,0.316,5.03,0.769,7.476,1.351C209.553,94.609,232.759,122.638,232.759,156.09z"/>
<path style="fill:#003A7F;" d="M170.883,85.871c-3.462,14.843-11.036,28.433-22.062,39.331v4.586
	c0,10.553-8.58,19.133-19.123,19.133H92.103c-0.187,0-0.365,0-0.552-0.01c3.6-35.721,33.768-63.602,70.426-63.602
	C164.995,85.309,167.963,85.496,170.883,85.871z"/>
<path style="fill:#0054A0;" d="M220.677,317.674v53.769H102.902v-53.769c0-1.292,0.039-2.574,0.128-3.846
	c0.681-10.582,4.162-20.415,9.714-28.739c10.553-15.859,28.581-26.303,49.055-26.303c13.837,0,26.569,4.783,36.628,12.781
	c1.756,1.391,3.422,2.88,5.01,4.468c2.752,2.751,5.247,5.799,7.407,9.063c5.543,8.324,9.024,18.146,9.704,28.729
	C220.638,315.1,220.677,316.382,220.677,317.674z"/>
<g>
	<path style="fill:#003A7F;" d="M161.494,377.252c-4.267,0-7.726-3.459-7.726-7.726v-90.273c0-4.268,3.459-7.726,7.726-7.726
		s7.726,3.459,7.726,7.726v90.273C169.221,373.793,165.762,377.252,161.494,377.252z"/>
	<path style="fill:#003A7F;" d="M220.677,317.674v18.423H102.902v-18.423c0-1.292,0.039-2.574,0.128-3.846h117.519
		C220.638,315.1,220.677,316.382,220.677,317.674z"/>
	<path style="fill:#003A7F;" d="M210.846,285.094l-22.441,21.09c-3.402,3.198-8.709,3.146-12.045-0.109l-14.564-14.213
		l-14.564,14.213c-3.336,3.256-8.651,3.307-12.045,0.109l-22.448-21.098c10.556-15.849,28.588-26.295,49.057-26.295
		c16.258,0,30.982,6.592,41.64,17.243C206.195,278.794,208.685,281.831,210.846,285.094z"/>
</g>
<path style="fill:#1D71B8;" d="M203.945,276.556l-17.833,16.758c-2.036,1.913-5.218,1.883-7.218-0.068l-17.099-16.69l-17.099,16.69
	c-2,1.952-5.182,1.982-7.218,0.068l-17.833-16.758c10.688-10.967,25.628-17.771,42.15-17.771c16.524,0,31.46,6.803,42.15,17.769
	C203.946,276.554,203.946,276.556,203.945,276.556z"/>
<path style="fill:#E8A96B;" d="M161.793,276.556L161.793,276.556c-7.203,0-13.042-5.839-13.042-13.042V241.02h26.085v22.494
	C174.836,270.717,168.996,276.556,161.793,276.556z"/>
<path style="fill:#FCCE99;" d="M208.755,148.178l-2.244,26.949l-3.028,36.273c-0.155,1.849-0.423,3.663-0.812,5.428
	c-4.129,19.1-21.097,33.146-41.122,33.146c-21.881,0-40.113-16.771-41.927-38.574l-3.176-38.037l-2.103-25.184L208.755,148.178
	L208.755,148.178z"/>
<path style="fill:#0054A0;" d="M216.87,138.545v34.883c-23.393,1.588-41.865-4.487-50.682-8.186
	c-3.669-1.539-5.661-2.663-5.661-2.663v6.127c0,2.564-2.18,4.603-4.736,4.4c-41.384-3.289-49.665-17.017-49.665-17.017v-17.545
	H216.87V138.545z"/>
<path style="fill:#003A7F;" d="M146.69,138.545c-3.176,6.164-9.606,10.375-16.993,10.375h-23.571v-10.375H146.69z"/>
<path style="fill:#D2E3F1;" d="M327.673,335.525v139.344H73.578c-4.552,0-8.241-3.69-8.241-8.241V335.525H327.673z"/>
<g>
	<path style="fill:#A5C6E3;" d="M327.673,335.525v139.344h-67.902v-55.485c0-18.107,5.276-35.603,15.277-50.623
		c3.324-5.01,7.199-9.744,11.499-14.054c8.225-8.225,17.742-14.675,28.088-19.182H327.673z"/>
	<rect x="65.341" y="335.52" style="fill:#A5C6E3;" width="262.34" height="25.6"/>
</g>
<path style="fill:#FCCE99;" d="M350.356,324.39v22.269H50.895c-4.552,0-8.241-3.69-8.241-8.241v-5.786
	c0-4.552,3.69-8.241,8.241-8.241h299.461V324.39z"/>
<g>
	<rect x="320.111" y="324.39" style="fill:#E8A96B;" width="30.25" height="22.269"/>
	<path style="fill:#E8A96B;" d="M327.673,335.525v11.135h-31.934c0.799-0.612,1.608-1.213,2.426-1.795
		C306.755,338.72,317.111,335.525,327.673,335.525z"/>
</g>
<path style="fill:#FCCE99;" d="M351.225,360.64L351.225,360.64c9.378,0,16.98-7.602,16.98-16.98v-29.285h-33.96v29.285
	C334.245,353.038,341.847,360.64,351.225,360.64z"/>
<path style="fill:#1D71B8;" d="M282.803,511.997h136.843c4.552,0,8.241-3.69,8.241-8.241V419.38
	c0-42.34-34.323-76.663-76.663-76.663l0,0c-42.34,0-76.663,34.323-76.663,76.663v84.376
	C274.562,508.307,278.251,511.997,282.803,511.997z"/>
<g>
	<path style="fill:#0054A0;" d="M427.893,419.384v84.375c0,4.552-3.69,8.241-8.241,8.241h-5.299v-92.616
		c0-15.681-4.714-30.287-12.801-42.428c-12.555-18.857-33.246-31.845-57.073-33.936c2.219-0.197,4.477-0.296,6.746-0.296
		c26.648,0,50.12,13.6,63.868,34.232C423.179,389.097,427.893,403.702,427.893,419.384z"/>
	<path style="fill:#0054A0;" d="M420.803,399.825H280.818c-4.267,0-7.726-3.459-7.726-7.726c0-4.268,3.459-7.726,7.726-7.726
		h139.984c4.267,0,7.726,3.459,7.726,7.726C428.529,396.366,425.07,399.825,420.803,399.825z"/>
</g>
<path style="fill:#D2E3F1;" d="M360.802,375.909h-17.943c-4.267,0-7.726-3.459-7.726-7.726s3.459-7.726,7.726-7.726h17.943
	c4.267,0,7.726,3.459,7.726,7.726S365.069,375.909,360.802,375.909z"/>
<g>
	<circle style="fill:#FCCE99;" cx="290.081" cy="253.75" r="22.577"/>
	<circle style="fill:#FCCE99;" cx="413.001" cy="253.75" r="22.577"/>
</g>
<path style="fill:#E8A96B;" d="M413.001,193.504l-2.74,32.791l-3.358,40.29l-0.773,9.23c-2.369,28.382-26.105,50.211-54.589,50.211
	c-28.484,0-52.22-21.829-54.589-50.211l-0.814-9.745l-3.132-37.488l-2.926-35.077h122.921V193.504z"/>
<path style="fill:#DB9352;" d="M413.001,193.504l-2.74,32.791l-3.358,40.29L368.766,285.2c-4.141,2.019-8.767,3.08-13.382,3.08
	c-4.049,0-8.005-0.793-11.754-2.349l-47.491-19.862l-3.132-37.488l-2.926-35.077L413.001,193.504L413.001,193.504z"/>
<g>
	<path style="fill:#E2780E;" d="M282.786,177.973c-16.443,7.705-34.903,11.622-35.142,11.673c-3.142,0.652-5.554,3.178-6.06,6.347
		s0.999,6.321,3.783,7.919c12.811,7.356,25.391,12.349,37.419,15.593V177.973z"/>
	<path style="fill:#E2780E;" d="M297.415,247.068l53.163,22.221c3.308,1.383,7.053,1.274,10.275-0.298l45.469-22.183
		c0.06-0.03,0.121-0.058,0.182-0.087c1.486-0.702,37.27-18.313,20.585-73.417c-9.241-30.517-46.884-42.211-76.311-42.953
		c-30.865-0.773-66.103,9.818-75.222,35.239C259.037,211.645,292.07,242.47,297.415,247.068z"/>
</g>
<path style="fill:#F9A13E;" d="M439.235,202.157c-0.72,38.453-29.528,51.599-29.528,51.599l-45.465,22.18
	c-5.217,2.545-11.282,2.722-16.648,0.483l-54.223-22.663c0,0-45.031-35.169-25.09-90.772c8.807-24.557,38.552-38.078,70.663-40.13
	c40.583-2.574,84.934,13.186,95.536,48.207C438.061,182.896,439.413,193.212,439.235,202.157z"/>
<path style="fill:#E2780E;" d="M439.235,202.157c-6.213,1.499-12.693,2.288-19.34,2.288H382.31c-10.553,0-19.133-8.58-19.133-19.133
	v-4.586c-15.494-15.306-24.163-35.928-24.232-57.872c40.583-2.574,84.934,13.186,95.536,48.207
	C438.061,182.896,439.413,193.212,439.235,202.157z"/>
<path style="fill:#FCE790;" d="M419.394,55.537c-35.444,0.727-64.491,29.425-65.62,64.858c-0.689,21.634,8.874,41.057,24.196,53.789
	v11.126c0,2.396,1.942,4.338,4.338,4.338h37.591c36.833,0,67.472-29.323,67.96-66.153C488.363,85.571,457.381,54.758,419.394,55.537
	z"/>
<g>
	<path style="fill:#F9A13E;" d="M398.682,118.184h-11.835c-4.267,0-7.726-3.459-7.726-7.726c0-4.268,3.459-7.726,7.726-7.726h11.835
		c4.267,0,7.726,3.459,7.726,7.726S402.949,118.184,398.682,118.184z"/>
	<path style="fill:#F9A13E;" d="M460.814,136.429h-73.967c-4.267,0-7.726-3.459-7.726-7.726c0-4.267,3.459-7.726,7.726-7.726h73.967
		c4.267,0,7.726,3.459,7.726,7.726C468.54,132.97,465.081,136.429,460.814,136.429z"/>
	<path style="fill:#F9A13E;" d="M460.814,118.184h-40.323c-4.267,0-7.726-3.459-7.726-7.726c0-4.268,3.459-7.726,7.726-7.726h40.323
		c4.267,0,7.726,3.459,7.726,7.726S465.081,118.184,460.814,118.184z"/>
</g>
<g>
	<path style="fill:#1D71B8;" d="M139.278,200.836c-4.267,0-7.726-3.459-7.726-7.726v-0.95c0-4.268,3.459-7.726,7.726-7.726
		s7.726,3.459,7.726,7.726v0.95C147.005,197.377,143.545,200.836,139.278,200.836z"/>
	<path style="fill:#1D71B8;" d="M184.974,200.836c-4.267,0-7.726-3.459-7.726-7.726v-0.95c0-4.268,3.459-7.726,7.726-7.726
		s7.726,3.459,7.726,7.726v0.95C192.7,197.377,189.241,200.836,184.974,200.836z"/>
</g>
<path style="fill:#E8A96B;" d="M162.894,231.97c-5.803,0-11.255-1.725-15.35-4.857c-3.39-2.592-4.036-7.442-1.444-10.831
	c2.593-3.388,7.442-4.034,10.831-1.443c1.374,1.05,3.603,1.678,5.962,1.678c2.36,0,4.588-0.628,5.961-1.678
	c3.39-2.592,8.239-1.948,10.831,1.443c2.593,3.389,1.947,8.238-1.442,10.831C174.149,230.245,168.698,231.97,162.894,231.97z"/>
<path style="fill:#A5C6E3;" d="M92.608,0.014c35.444,0.727,64.49,29.425,65.62,64.858c0.689,21.634-8.874,41.057-24.196,53.789
	v11.126c0,2.396-1.942,4.338-4.338,4.338H92.102c-36.833,0-67.472-29.323-67.96-66.153C23.639,30.049,54.621-0.765,92.608,0.014z"/>
<g>
	<path style="fill:#0054A0;" d="M91.201,89.53c-4.267,0-7.726-3.459-7.726-7.726v-6.422c0-7.539,4.435-14.42,11.299-17.526
		c2.863-1.297,5.535-4.562,5.052-8.937c-0.431-3.903-3.7-7.173-7.604-7.604c-2.532-0.288-4.946,0.485-6.808,2.153
		c-1.866,1.671-2.893,3.97-2.893,6.471c0,4.268-3.459,7.726-7.726,7.726s-7.726-3.459-7.726-7.726c0-6.853,2.93-13.407,8.037-17.982
		c5.105-4.571,11.959-6.76,18.814-6.002c11.097,1.226,20.041,10.17,21.267,21.268c1.155,10.456-4.487,20.386-14.038,24.71
		c-1.348,0.61-2.219,1.964-2.219,3.449v6.422C98.927,86.071,95.468,89.53,91.201,89.53z"/>
	<path style="fill:#0054A0;" d="M91.201,111.412c-4.267,0-7.726-3.459-7.726-7.726v-2.237c0-4.268,3.459-7.726,7.726-7.726
		s7.726,3.459,7.726,7.726v2.237C98.927,107.953,95.468,111.412,91.201,111.412z"/>
</g>
<g>
</g>
<g>
</g>
<g>
</g>
<g>
</g>
<g>
</g>
<g>
</g>
<g>
</g>
<g>
</g>
<g>
</g>
<g>
</g>
<g>
</g>
<g>
</g>
<g>
</g>
<g>
</g>
<g>
</g>
</svg>
